ffmpeg version 4.2.7-0ubuntu0.1 Copyright (c) 2000-2022 the FFmpeg developers
  built with gcc 9 (Ubuntu 9.4.0-1ubuntu1~20.04.1)
  configuration: --prefix=/usr --extra-version=0ubuntu0.1 --toolchain=hardened --libdir=/usr/lib/x86_64-linux-gnu --incdir=/usr/include/x86_64-linux-gnu --arch=amd64 --enable-gpl --disable-stripping --enable-avresample --disable-filter=resample --enable-avisynth --enable-gnutls --enable-ladspa --enable-libaom --enable-libass --enable-libbluray --enable-libbs2b --enable-libcaca --enable-libcdio --enable-libcodec2 --enable-libflite --enable-libfontconfig --enable-libfreetype --enable-libfribidi --enable-libgme --enable-libgsm --enable-libjack --enable-libmp3lame --enable-libmysofa --enable-libopenjpeg --enable-libopenmpt --enable-libopus --enable-libpulse --enable-librsvg --enable-librubberband --enable-libshine --enable-libsnappy --enable-libsoxr --enable-libspeex --enable-libssh --enable-libtheora --enable-libtwolame --enable-libvidstab --enable-libvorbis --enable-libvpx --enable-libwavpack --enable-libwebp --enable-libx265 --enable-libxml2 --enable-libxvid --enable-libzmq --enable-libzvbi --enable-lv2 --enable-omx --enable-openal --enable-opencl --enable-opengl --enable-sdl2 --enable-libdc1394 --enable-libdrm --enable-libiec61883 --enable-nvenc --enable-chromaprint --enable-frei0r --enable-libx264 --enable-shared
  libavutil      56. 31.100 / 56. 31.100
  libavcodec     58. 54.100 / 58. 54.100
  libavformat    58. 29.100 / 58. 29.100
  libavdevice    58.  8.100 / 58.  8.100
  libavfilter     7. 57.100 /  7. 57.100
  libavresample   4.  0.  0 /  4.  0.  0
  libswscale      5.  5.100 /  5.  5.100
  libswresample   3.  5.100 /  3.  5.100
  libpostproc    55.  5.100 / 55.  5.100
[rawvideo @ 0x55ec10fcb780] Estimating duration from bitrate, this may be inaccurate
Input #0, rawvideo, from 'output.yuv':
  Duration: 00:00:04.80, start: 0.000000, bitrate: 2488320 kb/s
    Stream #0:0: Video: rawvideo (I420 / 0x30323449), yuv420p, 3840x2160, 2488320 kb/s, 25 tbr, 25 tbn, 25 tbc
Stream mapping:
  Stream #0:0 -> #0:0 (rawvideo (native) -> h264 (libx264))
Press [q] to stop, [?] for help
[libx264 @ 0x55ec10fd0d80] using cpu capabilities: MMX2 SSE2Fast SSSE3 SSE4.2 AVX
[libx264 @ 0x55ec10fd0d80] profile High, level 5.1
Output #0, h264, to 'output_h264.264':
  Metadata:
    encoder         : Lavf58.29.100
    Stream #0:0: Video: h264 (libx264), yuv420p, 3840x2160, q=-1--1, 30 fps, 30 tbn, 30 tbc
    Metadata:
      encoder         : Lavc58.54.100 libx264
    Side data:
      cpb: bitrate max/min/avg: 0/0/0 buffer size: 0 vbv_delay: -1
frame=   22 fps=0.0 q=0.0 size=       0kB time=00:00:00.00 bitrate=N/A speed=   0x    frame=   46 fps= 45 q=0.0 size=       0kB time=00:00:00.00 bitrate=N/A speed=   0x    frame=   47 fps= 10 q=0.0 size=       0kB time=00:00:00.00 bitrate=N/A speed=   0x    frame=   52 fps=9.8 q=0.0 size=       0kB time=00:00:00.00 bitrate=N/A speed=   0x    frame=   56 fps=9.6 q=0.0 size=       0kB time=00:00:00.00 bitrate=N/A speed=   0x    frame=   60 fps=9.1 q=29.0 size=    1024kB time=00:00:00.06 bitrate=125828.5kbits/s speed=0.0101x    frame=   61 fps=8.3 q=29.0 size=    1280kB time=00:00:00.10 bitrate=104857.6kbits/s speed=0.0135x    frame=   63 fps=7.4 q=29.0 size=    2048kB time=00:00:00.16 bitrate=100663.1kbits/s speed=0.0195x    frame=   67 fps=6.8 q=29.0 size=    3072kB time=00:00:00.30 bitrate=83886.1kbits/s speed=0.0305x    frame=   68 fps=3.9 q=29.0 size=    3072kB time=00:00:00.33 bitrate=75497.5kbits/s speed=0.0189x    frame=   75 fps=4.1 q=29.0 size=    4608kB time=00:00:00.56 bitrate=66615.4kbits/s speed=0.0312x    frame=   78 fps=4.2 q=29.0 size=    4864kB time=00:00:00.66 bitrate=59768.8kbits/s speed=0.0356x    frame=   80 fps=4.0 q=29.0 size=    5120kB time=00:00:00.73 bitrate=57195.1kbits/s speed=0.0369x    frame=   83 fps=4.0 q=29.0 size=    5632kB time=00:00:00.83 bitrate=55364.8kbits/s speed=0.0405x    frame=   86 fps=4.1 q=29.0 size=    6144kB time=00:00:00.93 bitrate=53926.8kbits/s speed=0.044x    frame=   88 fps=4.0 q=29.0 size=    6400kB time=00:00:01.00 bitrate=52428.8kbits/s speed=0.0458x    frame=   90 fps=4.0 q=29.0 size=    6656kB time=00:00:01.06 bitrate=51118.1kbits/s speed=0.0477x    frame=   93 fps=4.1 q=29.0 size=    7168kB time=00:00:01.16 bitrate=50331.6kbits/s speed=0.0509x    frame=   94 fps=3.5 q=29.0 size=    7168kB time=00:00:01.20 bitrate=48933.5kbits/s speed=0.0443x    frame=  101 fps=3.7 q=29.0 size=    8192kB time=00:00:01.43 bitrate=46820.1kbits/s speed=0.0519x    frame=  105 fps=2.9 q=29.0 size=    8960kB time=00:00:01.56 bitrate=46851.3kbits/s speed=0.0434x    frame=  111 fps=3.0 q=29.0 size=    9728kB time=00:00:01.76 bitrate=45108.5kbits/s speed=0.048x    frame=  115 fps=3.1 q=29.0 size=   10240kB time=00:00:01.90 bitrate=44150.6kbits/s speed=0.0508x    frame=  117 fps=3.1 q=29.0 size=   10496kB time=00:00:01.96 bitrate=43720.3kbits/s speed=0.0514x    frame=  119 fps=3.0 q=29.0 size=   10752kB time=00:00:02.03 bitrate=43318.2kbits/s speed=0.0517x    frame=  120 fps=1.6 q=-1.0 Lsize=   19622kB time=00:00:03.93 bitrate=40867.3kbits/s speed=0.054x    
video:19622kB audio:0kB subtitle:0kB other streams:0kB global headers:0kB muxing overhead: 0.000000%
[libx264 @ 0x55ec10fd0d80] frame I:3     Avg QP:23.42  size:436736
[libx264 @ 0x55ec10fd0d80] frame P:93    Avg QP:25.53  size:162869
[libx264 @ 0x55ec10fd0d80] frame B:24    Avg QP:26.96  size:151502
[libx264 @ 0x55ec10fd0d80] consecutive B-frames: 72.5%  1.7%  2.5% 23.3%
[libx264 @ 0x55ec10fd0d80] mb I  I16..4:  8.4% 84.0%  7.6%
[libx264 @ 0x55ec10fd0d80] mb P  I16..4:  9.6% 24.1%  0.7%  P16..4: 48.1%  7.8%  4.5%  0.0%  0.0%    skip: 5.1%
[libx264 @ 0x55ec10fd0d80] mb B  I16..4:  1.4%  5.6%  0.1%  B16..8: 39.8%  5.2%  1.2%  direct:23.2%  skip:23.6%  L0:40.3% L1:55.6% BI: 4.1%
[libx264 @ 0x55ec10fd0d80] 8x8 transform intra:71.4% inter:87.9%
[libx264 @ 0x55ec10fd0d80] coded y,uvDC,uvAC intra: 48.5% 89.3% 47.4% inter: 34.3% 75.6% 7.6%
[libx264 @ 0x55ec10fd0d80] i16 v,h,dc,p: 11% 25%  2% 62%
[libx264 @ 0x55ec10fd0d80] i8 v,h,dc,ddl,ddr,vr,hd,vl,hu: 14% 18% 22%  7%  9%  7% 10%  6%  8%
[libx264 @ 0x55ec10fd0d80] i4 v,h,dc,ddl,ddr,vr,hd,vl,hu: 21% 20% 14%  7% 12%  8%  9%  5%  5%
[libx264 @ 0x55ec10fd0d80] i8c dc,h,v,p: 53% 21% 16% 11%
[libx264 @ 0x55ec10fd0d80] Weighted P-Frames: Y:3.2% UV:3.2%
[libx264 @ 0x55ec10fd0d80] ref P L0: 66.8% 12.9% 13.6%  6.4%  0.3%
[libx264 @ 0x55ec10fd0d80] ref B L0: 84.0% 13.7%  2.3%
[libx264 @ 0x55ec10fd0d80] ref B L1: 91.0%  9.0%
[libx264 @ 0x55ec10fd0d80] kb/s:40186.18
